<svg width="27" height="18" viewBox="0 0 27 18" fill="none" xmlns="http://www.w3.org/2000/svg">
<g clip-path="url(#clip0_8_18)">
<path d="M9.83 16.38C10.55 16.23 11.18 15.95 11.71 15.55C12.18 15.2 12.57 14.76 12.89 14.24C13.38 13.46 13.63 12.58 13.63 11.59C13.63 10.6 13.41 9.83 12.98 9.16C12.55 8.49 11.91 8 11.06 7.69C11.62 7.41 12.04 7.09 12.33 6.74C12.84 6.13 13.1 5.31 13.1 4.3C13.1 3.29 12.85 2.47 12.34 1.77C11.48 0.62 10.05 0.03 8.03 0H0V16.6H7.48C8.32 16.6 9.11 16.52 9.83 16.37V16.38ZM3.31 2.88H6.92C7.72 2.88 8.37 2.97 8.88 3.14C9.48 3.39 9.77 3.9 9.77 4.67C9.77 5.37 9.54 5.86 9.09 6.13C8.64 6.4 8.06 6.54 7.33 6.54H3.31V2.88ZM3.31 13.72V9.29H7.4C8.11 9.29 8.67 9.39 9.06 9.57C9.76 9.89 10.12 10.49 10.12 11.35C10.12 12.37 9.76 13.06 9.03 13.42C8.63 13.62 8.07 13.71 7.35 13.71H3.31V13.72Z" fill="#DDDDDE"/>
<path d="M16.43 15.51C17.68 16.52 19.12 17.02 20.75 17.02C22.73 17.02 24.27 16.42 25.37 15.23C26.08 14.48 26.47 13.74 26.56 13.01H23.28C23.09 13.37 22.87 13.65 22.62 13.85C22.16 14.23 21.57 14.41 20.84 14.41C20.15 14.41 19.56 14.26 19.07 13.95C18.26 13.45 17.84 12.59 17.79 11.36H26.73C26.75 10.3 26.71 9.48999 26.62 8.91999C26.47 7.95999 26.14 7.10999 25.64 6.37999C25.08 5.54999 24.38 4.94999 23.52 4.55999C22.66 4.17999 21.7 3.98999 20.63 3.98999C18.83 3.98999 17.37 4.55999 16.24 5.68999C15.11 6.81999 14.55 8.45999 14.55 10.58C14.55 12.85 15.17 14.49 16.42 15.5L16.43 15.51ZM18.73 7.34999C19.18 6.87999 19.82 6.64999 20.65 6.64999C21.41 6.64999 22.04 6.86999 22.56 7.30999C23.07 7.74999 23.36 8.39999 23.42 9.24999H17.89C18.01 8.44999 18.29 7.81999 18.75 7.34999H18.73Z" fill="#DDDDDE"/>
<path d="M24.04 0.950012H16.82V2.63001H24.04V0.950012Z" fill="#DDDDDE"/>
</g>
<defs>
<clipPath id="clip0_8_18">
<rect width="26.74" height="17.02" fill="white"/>
</clipPath>
</defs>
</svg>
