<svg width="26" height="26" viewBox="0 0 26 26" fill="none" xmlns="http://www.w3.org/2000/svg">
<g clip-path="url(#clip0_8_14)">
<path d="M13 2.34C16.47 2.34 16.88 2.35 18.25 2.42C19.52 2.48 20.21 2.69 20.66 2.87C21.27 3.11 21.7 3.39 22.15 3.84C22.61 4.3 22.89 4.73 23.12 5.33C23.3 5.79 23.51 6.48 23.57 7.74C23.63 9.11 23.65 9.52 23.65 12.99C23.65 16.46 23.64 16.87 23.57 18.24C23.51 19.51 23.3 20.2 23.12 20.65C22.88 21.26 22.6 21.69 22.15 22.15C21.7 22.6 21.26 22.89 20.66 23.12C20.2 23.3 19.51 23.51 18.25 23.57C16.88 23.63 16.47 23.65 13 23.65C9.53 23.65 9.12 23.64 7.75 23.57C6.48 23.51 5.79 23.3 5.34 23.12C4.73 22.88 4.3 22.6 3.84 22.15C3.39 21.69 3.1 21.26 2.87 20.65C2.69 20.19 2.48 19.5 2.42 18.24C2.36 16.87 2.34 16.46 2.34 12.99C2.34 9.52 2.35 9.11 2.42 7.74C2.48 6.47 2.69 5.78 2.87 5.33C3.11 4.72 3.39 4.29 3.84 3.84C4.3 3.38 4.73 3.1 5.34 2.87C5.8 2.69 6.49 2.48 7.75 2.42C9.12 2.36 9.53 2.34 13 2.34ZM13 0C9.47 0 9.03 0.02 7.64 0.08C6.26 0.14 5.31 0.36 4.48 0.68C3.62 1.01 2.9 1.46 2.18 2.18C1.46 2.9 1.01 3.63 0.68 4.48C0.36 5.31 0.14 6.25 0.08 7.64C0.02 9.03 0 9.47 0 13C0 16.53 0.01 16.97 0.08 18.36C0.14 19.74 0.36 20.69 0.68 21.52C1.01 22.37 1.46 23.1 2.18 23.82C2.9 24.54 3.63 24.99 4.48 25.32C5.31 25.64 6.25 25.86 7.64 25.92C9.03 25.98 9.47 26 13 26C16.53 26 16.97 25.99 18.36 25.92C19.74 25.86 20.69 25.64 21.52 25.32C22.38 24.99 23.1 24.54 23.82 23.82C24.54 23.1 24.99 22.37 25.32 21.52C25.64 20.69 25.86 19.75 25.92 18.36C25.98 16.97 26 16.53 26 13C26 9.47 25.99 9.03 25.92 7.64C25.86 6.26 25.64 5.31 25.32 4.48C24.99 3.63 24.54 2.9 23.82 2.18C23.1 1.46 22.37 1.01 21.52 0.68C20.69 0.36 19.75 0.14 18.36 0.08C16.97 0.02 16.53 0 13 0Z" fill="#DDDDDE"/>
<path d="M13 6.33002C9.31001 6.33002 6.32001 9.32002 6.32001 13.01C6.32001 16.7 9.31001 19.69 13 19.69C16.69 19.69 19.68 16.7 19.68 13.01C19.68 9.32002 16.69 6.33002 13 6.33002ZM13 17.34C10.61 17.34 8.67001 15.4 8.67001 13.01C8.67001 10.62 10.61 8.68002 13 8.68002C15.39 8.68002 17.33 10.62 17.33 13.01C17.33 15.4 15.39 17.34 13 17.34Z" fill="#DDDDDE"/>
<path d="M21.5 6.06C21.5 6.92 20.8 7.62 19.94 7.62C19.08 7.62 18.38 6.92 18.38 6.06C18.38 5.2 19.08 4.5 19.94 4.5C20.8 4.5 21.5 5.2 21.5 6.06Z" fill="#DDDDDE"/>
</g>
<defs>
<clipPath id="clip0_8_14">
<rect width="26" height="26" fill="white"/>
</clipPath>
</defs>
</svg>
