<svg width="24" height="24" viewBox="0 0 24 24" fill="none" xmlns="http://www.w3.org/2000/svg">
<g clip-path="url(#clip0_8_23)">
<path d="M5.37997 7.92999H0.469971V23.78H5.37997V7.92999Z" fill="#DDDDDE"/>
<path d="M2.9 5.85C4.5 5.85 5.8 4.54 5.8 2.92C5.8 1.3 4.51 0 2.9 0C1.29 0 0 1.31 0 2.93C0 4.55 1.3 5.86 2.9 5.86V5.85Z" fill="#DDDDDE"/>
<path d="M13.22 15.46C13.22 13.23 14.25 11.9 16.21 11.9C18.01 11.9 18.88 13.17 18.88 15.46V23.78H23.76V13.74C23.76 9.49 21.35 7.44 17.99 7.44C14.63 7.44 13.21 10.06 13.21 10.06V7.92H8.5V23.77H13.21V15.45L13.22 15.46Z" fill="#DDDDDE"/>
</g>
<defs>
<clipPath id="clip0_8_23">
<rect width="23.77" height="23.78" fill="white"/>
</clipPath>
</defs>
</svg>
